<?xml version="1.0" standalone="no"?>
<!DOCTYPE svg PUBLIC "-//W3C//DTD SVG 20010904//EN"
 "http://www.w3.org/TR/2001/REC-SVG-20010904/DTD/svg10.dtd">
<svg version="1.0" xmlns="http://www.w3.org/2000/svg"
 width="425.000000pt" height="118.000000pt" viewBox="0 0 425.000000 118.000000"
 preserveAspectRatio="xMidYMid meet">

<g transform="translate(0.000000,118.000000) scale(0.100000,-0.100000)"
fill="#DDE0E4" stroke="none">
<path d="M245 1169 c-73 -10 -135 -41 -176 -86 -64 -71 -64 -69 -64 -583 l0
-465 118 -3 117 -3 0 438 c0 241 4 443 8 450 4 6 20 16 35 22 58 22 90 -17
121 -148 8 -31 28 -110 46 -176 17 -66 42 -160 55 -210 76 -286 101 -330 215
-376 110 -44 286 -16 349 57 69 78 66 49 69 582 l3 482 -115 0 -116 0 0 -435
0 -436 -26 -25 c-19 -20 -31 -24 -52 -19 -53 13 -52 12 -137 330 -14 55 -37
138 -50 185 -13 47 -27 101 -30 120 -16 76 -65 185 -101 221 -62 63 -164 93
-269 78z"/>
<path d="M1640 1170 c-84 -12 -138 -47 -180 -115 -10 -16 -44 -109 -75 -205
-31 -96 -67 -206 -80 -245 -13 -38 -49 -151 -80 -250 -31 -99 -67 -211 -81
-248 -13 -38 -24 -70 -24 -73 0 -2 55 -3 122 -2 l121 3 34 105 c107 336 150
471 194 604 27 83 49 155 49 161 0 23 38 48 63 41 22 -5 31 -26 82 -183 32
-98 68 -209 81 -248 12 -38 53 -163 89 -277 l67 -208 378 0 c505 0 558 8 649
101 70 72 86 117 86 244 0 95 -4 116 -23 153 -35 66 -87 117 -145 143 -48 21
-70 23 -279 28 -210 6 -229 8 -255 27 -37 28 -49 73 -34 124 20 69 27 70 381
70 l310 0 0 115 0 115 -252 0 c-325 -1 -435 -11 -507 -47 -102 -52 -164 -163
-164 -293 0 -137 61 -243 169 -296 54 -26 62 -27 282 -33 200 -6 230 -9 255
-26 47 -31 60 -91 32 -144 -25 -49 -44 -52 -394 -49 l-324 3 -44 135 c-24 74
-66 205 -93 290 -116 361 -125 382 -185 432 -46 39 -142 59 -225 48z"/>
<path d="M3620 1170 c-25 -3 -63 -16 -85 -27 -86 -45 -102 -77 -210 -418 -120
-376 -158 -493 -186 -577 -43 -127 -49 -119 87 -116 l117 3 42 130 c23 72 68
211 100 310 139 432 147 455 166 466 28 14 55 3 67 -29 9 -25 42 -127 171
-527 28 -88 65 -204 83 -257 l31 -98 119 0 c65 0 118 3 118 6 0 4 -9 32 -19
63 -11 31 -41 126 -69 211 -61 191 -155 485 -193 602 -36 111 -64 166 -102
200 -53 48 -145 70 -237 58z"/>
</g>
</svg>
