<?xml version="1.0" standalone="no"?>
<!DOCTYPE svg PUBLIC "-//W3C//DTD SVG 20010904//EN"
 "http://www.w3.org/TR/2001/REC-SVG-20010904/DTD/svg10.dtd">
<svg version="1.0" xmlns="http://www.w3.org/2000/svg"
 width="380.000000pt" height="133.000000pt" viewBox="0 0 380.000000 133.000000"
 preserveAspectRatio="xMidYMid meet">

<g transform="translate(0.000000,133.000000) scale(0.100000,-0.100000)"
fill="#DDE0E4" stroke="none">
<path d="M964 1301 c-191 -52 -431 -227 -553 -404 -190 -277 -167 -599 56
-769 100 -75 155 -92 303 -92 114 0 131 2 195 28 39 16 79 28 90 28 11 1 49
-12 85 -28 61 -27 74 -29 190 -29 116 1 130 3 204 33 l80 31 80 -39 c165 -81
345 -72 513 26 78 45 243 215 243 249 0 4 -27 -17 -59 -48 -167 -154 -314
-208 -477 -174 -125 27 -236 100 -290 193 l-26 44 -75 0 c-73 0 -74 -1 -67
-22 13 -45 45 -98 89 -152 l45 -55 -38 -11 c-63 -17 -203 -12 -275 10 -89 28
-178 90 -227 158 -148 206 -85 515 157 772 128 136 260 217 394 241 85 15 154
2 224 -42 l47 -30 -69 -48 c-83 -59 -162 -129 -203 -182 l-32 -39 64 0 63 1
55 66 c149 181 366 304 508 288 127 -13 221 -103 278 -263 27 -79 37 -89 28
-32 -9 66 -56 162 -105 215 -65 71 -107 88 -220 93 -107 5 -167 -8 -280 -60
l-67 -30 -50 35 c-65 45 -135 61 -226 54 -69 -6 -172 -36 -248 -73 -37 -17
-38 -17 -61 4 -69 65 -215 88 -343 53z m270 -31 c24 -12 51 -29 60 -39 14 -16
10 -21 -61 -72 -144 -103 -271 -248 -333 -380 -48 -104 -63 -180 -58 -295 4
-91 8 -109 41 -178 21 -45 57 -99 87 -130 50 -53 50 -54 26 -60 -161 -40 -364
11 -472 119 -193 193 -129 558 146 836 189 192 411 270 564 199z"/>
<path d="M1474 870 c-12 -5 -25 -13 -29 -19 -10 -17 -25 -13 -18 4 5 14 -4 16
-62 13 l-68 -3 -53 -205 c-30 -113 -54 -211 -54 -218 0 -10 16 -12 63 -10 l62
3 33 125 c57 212 63 231 78 237 8 3 17 3 20 0 3 -3 -15 -83 -40 -179 -25 -96
-46 -176 -46 -179 0 -2 29 -3 64 -1 76 4 65 -15 121 209 41 164 44 208 16 223
-23 12 -58 12 -87 0z"/>
<path d="M1701 858 c-59 -30 -75 -55 -106 -163 -30 -105 -40 -172 -31 -210 14
-55 127 -73 206 -32 52 26 76 56 95 120 l14 47 -63 0 -64 0 -12 -50 c-7 -29
-20 -55 -30 -60 -29 -15 -32 2 -14 74 l16 66 87 0 88 0 11 51 c29 125 5 170
-96 177 -45 3 -66 -1 -101 -20z m82 -99 c-6 -23 -16 -35 -30 -37 -20 -3 -21
-1 -11 35 6 21 15 41 22 45 19 12 28 -8 19 -43z"/>
<path d="M1965 868 c-4 -14 -55 -396 -55 -415 0 -9 20 -13 69 -13 l68 0 42 98
c45 105 45 105 25 -45 l-7 -53 71 0 71 0 19 53 c11 28 48 124 81 211 34 87 61
163 61 167 0 5 -24 9 -54 9 l-54 0 -43 -114 c-24 -63 -45 -113 -47 -112 -2 2
4 44 12 92 25 138 25 136 -36 132 l-51 -3 -45 -118 c-25 -64 -46 -116 -47
-115 -2 2 3 44 11 93 7 50 14 102 14 118 0 26 -2 27 -50 27 -32 0 -52 -5 -55
-12z"/>
<path d="M2530 868 c-49 -14 -85 -42 -104 -81 -23 -50 -66 -216 -66 -258 0
-47 34 -80 92 -86 96 -11 175 39 202 130 l14 48 -60 -3 -61 -3 -13 -46 c-14
-48 -40 -71 -50 -44 -3 7 2 39 10 69 l17 56 83 0 83 0 11 51 c25 105 10 150
-56 169 -43 12 -55 12 -102 -2z m50 -85 c0 -38 -13 -63 -31 -63 -22 0 -23 6
-8 49 12 33 39 43 39 14z"/>
<path d="M2802 855 c-35 -30 -44 -50 -77 -182 -30 -122 -25 -148 29 -158 23
-5 45 -2 65 8 27 14 31 14 31 1 0 -24 -20 -54 -35 -54 -8 0 -15 5 -15 10 0 6
-26 10 -59 10 -65 0 -78 -11 -61 -54 11 -30 38 -39 113 -38 66 1 121 24 149
62 10 14 38 104 63 200 25 96 48 183 51 193 5 15 -2 17 -54 17 -38 0 -62 -4
-64 -12 -3 -8 -11 -7 -28 5 -34 24 -74 21 -108 -8z m112 -53 c6 -11 -43 -193
-57 -210 -6 -8 -14 -9 -19 -4 -9 9 21 150 42 200 10 22 25 29 34 14z"/>
<path d="M3144 869 c-31 -16 -50 -54 -78 -164 -30 -113 -32 -157 -11 -175 15
-13 85 -10 118 5 17 7 17 5 4 -26 -14 -36 -47 -53 -47 -24 0 14 -10 16 -60 13
l-61 -3 3 -35 c4 -44 33 -60 108 -60 65 0 131 28 155 64 14 21 115 380 115
409 0 4 -25 7 -55 7 -41 0 -56 -4 -64 -17 -9 -17 -10 -17 -28 0 -21 19 -66 21
-99 6z m106 -65 c0 -13 -41 -171 -50 -191 -8 -20 -40 -33 -40 -17 0 10 52 198
57 207 5 8 33 10 33 1z"/>
<path d="M3434 844 c-4 -17 -1 -31 8 -40 13 -13 15 -10 15 25 0 46 -13 54 -23
15z m13 -26 c-3 -7 -5 -2 -5 12 0 14 2 19 5 13 2 -7 2 -19 0 -25z"/>
<path d="M3480 866 c0 -2 7 -7 16 -10 8 -3 12 -2 9 4 -6 10 -25 14 -25 6z"/>
<path d="M3477 835 c-4 -8 -3 -16 1 -19 4 -3 9 4 9 15 2 23 -3 25 -10 4z"/>
<path d="M3510 832 c0 -6 -7 -18 -16 -26 -8 -9 -11 -16 -5 -16 13 0 35 39 27
48 -3 3 -6 0 -6 -6z"/>
</g>
</svg>
