<?xml version="1.0" standalone="no"?>
<!DOCTYPE svg PUBLIC "-//W3C//DTD SVG 20010904//EN"
 "http://www.w3.org/TR/2001/REC-SVG-20010904/DTD/svg10.dtd">
<svg version="1.0" xmlns="http://www.w3.org/2000/svg"
 width="259.000000pt" height="194.000000pt" viewBox="0 0 259.000000 194.000000"
 preserveAspectRatio="xMidYMid meet">

<g transform="translate(0.000000,194.000000) scale(0.100000,-0.100000)"
fill="#DDE0E4" stroke="none">
<path d="M660 1367 c0 -1 -38 -152 -85 -336 -47 -183 -85 -335 -85 -337 0 -2
36 -4 79 -4 l79 0 18 75 c10 41 20 79 23 83 5 8 105 62 114 62 2 0 12 -39 22
-87 25 -119 40 -133 139 -133 l75 0 17 58 c8 31 18 65 20 75 5 14 -1 17 -33
17 -22 0 -46 6 -55 13 -13 11 -45 124 -36 132 1 1 35 18 73 38 39 19 78 43 87
54 21 23 70 203 66 241 -5 47 -31 52 -285 52 -128 0 -233 -1 -233 -3z m496
-42 c8 -19 -33 -192 -52 -223 -8 -12 -51 -41 -97 -63 -45 -23 -83 -42 -84 -43
-1 -1 7 -35 17 -76 21 -80 37 -100 83 -100 27 0 28 -2 22 -32 -17 -76 -19 -78
-83 -78 -32 0 -66 6 -76 13 -11 8 -27 50 -42 111 -13 54 -25 101 -28 103 -2 2
-36 -12 -75 -31 -76 -39 -68 -26 -101 -156 l-11 -40 -54 0 c-30 0 -55 3 -55 8
0 4 35 145 77 314 l78 308 238 0 c203 0 238 -2 243 -15z"/>
<path d="M736 1125 c-14 -57 -26 -107 -26 -110 0 -3 67 29 149 70 152 76 178
98 151 130 -10 12 -39 15 -130 15 l-118 0 -26 -105z m258 76 c9 -14 -24 -36
-142 -95 -88 -44 -112 -53 -108 -39 2 10 10 38 16 63 6 25 13 53 16 63 5 15
19 17 109 17 57 0 106 -4 109 -9z"/>
<path d="M1272 1360 c-27 -11 -43 -48 -67 -152 -17 -72 -17 -78 -1 -102 9 -15
79 -68 156 -119 77 -50 142 -99 145 -107 12 -29 -25 -40 -130 -40 l-102 0 -12
-52 c-6 -29 -14 -63 -17 -75 l-6 -23 176 0 c214 0 209 -3 245 136 20 80 21 95
9 118 -8 15 -76 68 -158 123 -193 131 -194 137 -9 141 l137 3 20 79 20 80
-192 -1 c-105 0 -201 -4 -214 -9z m373 -32 c-2 -7 -9 -32 -15 -55 l-11 -43
-127 0 c-135 0 -152 -5 -152 -45 0 -29 23 -48 176 -149 79 -51 134 -95 137
-107 8 -30 -38 -191 -59 -206 -23 -17 -324 -19 -324 -2 0 5 5 30 11 55 l11 44
89 0 c48 0 99 4 112 9 27 11 41 39 32 64 -4 8 -70 57 -147 108 -77 52 -147
103 -155 115 -12 19 -11 32 7 105 34 130 12 119 230 119 147 0 188 -3 185 -12z"/>
<path d="M1877 1363 c-3 -5 -42 -150 -86 -323 -45 -173 -84 -323 -87 -332 -5
-16 3 -18 75 -18 l79 0 11 33 c16 50 161 624 161 636 0 13 -146 16 -153 4z
m123 -35 c0 -7 -35 -148 -78 -313 l-77 -300 -57 -3 c-32 -2 -58 0 -58 4 0 5
88 347 151 587 l10 37 54 0 c38 0 55 -4 55 -12z"/>
<path d="M490 603 c0 -14 3 -23 7 -20 3 4 11 3 17 -2 7 -6 12 0 13 20 2 23 -2
29 -17 29 -15 0 -20 -7 -20 -27z m30 7 c0 -5 -4 -10 -10 -10 -5 0 -10 5 -10
10 0 6 5 10 10 10 6 0 10 -4 10 -10z"/>
<path d="M554 615 c-9 -23 3 -45 26 -45 16 0 20 7 20 30 0 23 -4 30 -20 30
-11 0 -23 -7 -26 -15z m36 -15 c0 -11 -7 -20 -15 -20 -8 0 -15 9 -15 20 0 11
7 20 15 20 8 0 15 -9 15 -20z"/>
<path d="M624 616 c-9 -24 4 -48 23 -44 12 2 18 12 18 28 0 29 -32 41 -41 16z
m36 -16 c0 -11 -7 -20 -15 -20 -8 0 -15 9 -15 20 0 11 7 20 15 20 8 0 15 -9
15 -20z"/>
<path d="M690 600 c0 -25 4 -30 23 -29 16 1 18 2 5 6 -10 2 -18 13 -18 23 0
10 8 21 18 23 13 4 11 5 -5 6 -19 1 -23 -4 -23 -29z"/>
<path d="M750 598 c0 -23 3 -29 9 -19 5 7 14 10 20 7 6 -4 11 -2 11 3 0 6 -7
11 -15 11 -21 0 -19 18 3 23 13 4 11 5 -5 6 -19 1 -23 -4 -23 -31z"/>
<path d="M818 603 c5 -23 7 -25 10 -8 2 11 9 23 16 27 6 5 3 8 -10 8 -18 0
-20 -4 -16 -27z"/>
<path d="M865 621 c-3 -5 0 -13 6 -17 8 -5 9 -3 4 6 -6 10 -3 12 13 8 12 -4
20 -2 16 3 -7 12 -31 12 -39 0z"/>
<path d="M965 619 c-4 -6 -4 -13 -1 -16 3 -4 6 -1 6 5 0 6 8 13 18 15 15 4 15
5 0 6 -9 0 -20 -4 -23 -10z"/>
<path d="M1031 603 c2 -24 2 -25 6 -5 5 24 18 29 26 10 3 -8 6 -6 6 5 1 11 -6
17 -19 17 -15 0 -20 -6 -19 -27z"/>
<path d="M1095 620 c-3 -5 -1 -10 4 -10 6 0 11 -6 11 -14 0 -8 4 -17 10 -21 5
-3 5 7 -1 25 -12 33 -15 35 -24 20z"/>
<path d="M1144 615 c-13 -32 23 -63 40 -36 4 5 -3 7 -14 4 -16 -4 -20 0 -20
17 0 17 4 21 20 17 11 -3 18 -1 14 4 -8 14 -34 11 -40 -6z"/>
<path d="M1210 600 c0 -25 4 -30 23 -29 16 1 18 2 5 6 -10 2 -18 13 -18 23 0
10 8 21 18 23 13 4 11 5 -5 6 -19 1 -23 -4 -23 -29z"/>
<path d="M1302 600 c0 -19 2 -27 5 -17 2 9 2 25 0 35 -3 9 -5 1 -5 -18z"/>
<path d="M1331 599 c1 -27 3 -29 6 -10 l5 25 19 -25 19 -24 -1 35 c-1 19 -3
27 -6 17 -5 -18 -6 -18 -24 -1 -18 17 -19 16 -18 -17z"/>
<path d="M1404 616 c-9 -24 4 -48 23 -44 24 4 24 52 0 56 -9 2 -20 -4 -23 -12z
m36 -16 c0 -11 -7 -20 -15 -20 -8 0 -15 9 -15 20 0 11 7 20 15 20 8 0 15 -9
15 -20z"/>
<path d="M1474 600 c1 -18 7 -25 21 -25 14 0 20 7 21 25 1 22 0 22 -3 3 -2
-13 -10 -23 -18 -23 -8 0 -16 10 -18 23 -3 19 -4 19 -3 -3z"/>
<path d="M1545 619 c-4 -6 -4 -13 -1 -16 3 -4 6 -1 6 5 0 6 8 13 18 15 15 4
15 5 0 6 -9 0 -20 -4 -23 -10z"/>
<path d="M1600 626 c0 -9 30 -14 35 -6 4 6 -3 10 -14 10 -12 0 -21 -2 -21 -4z"/>
<path d="M1660 603 c0 -14 3 -23 7 -20 3 4 11 3 17 -2 7 -6 12 0 13 20 2 23
-2 29 -17 29 -15 0 -20 -7 -20 -27z m30 7 c0 -5 -4 -10 -10 -10 -5 0 -10 5
-10 10 0 6 5 10 10 10 6 0 10 -4 10 -10z"/>
<path d="M1722 605 c0 -16 2 -22 5 -12 2 9 2 23 0 30 -3 6 -5 -1 -5 -18z"/>
<path d="M1754 615 c-9 -23 3 -45 23 -44 17 1 17 2 0 6 -21 5 -19 35 3 45 12
5 12 7 -3 7 -10 1 -20 -6 -23 -14z"/>
<path d="M1828 623 c7 -3 16 -2 19 1 4 3 -2 6 -13 5 -11 0 -14 -3 -6 -6z"/>
<path d="M900 591 c0 -8 -8 -11 -20 -8 -11 3 -18 1 -14 -4 3 -5 11 -9 19 -9
16 0 30 18 21 27 -3 4 -6 1 -6 -6z"/>
<path d="M1000 591 c0 -8 -8 -11 -20 -8 -11 3 -18 1 -14 -4 3 -5 11 -9 19 -9
16 0 30 18 21 27 -3 4 -6 1 -6 -6z"/>
<path d="M1850 592 c0 -6 -8 -13 -17 -15 -16 -4 -16 -5 -1 -6 18 -1 34 16 24
26 -3 4 -6 1 -6 -5z"/>
<path d="M1540 579 c0 -5 9 -9 20 -9 11 0 20 2 20 4 0 2 -9 6 -20 9 -11 3 -20
1 -20 -4z"/>
</g>
</svg>
