<?xml version="1.0" standalone="no"?>
<!DOCTYPE svg PUBLIC "-//W3C//DTD SVG 20010904//EN"
 "http://www.w3.org/TR/2001/REC-SVG-20010904/DTD/svg10.dtd">
<svg version="1.0" xmlns="http://www.w3.org/2000/svg"
 width="284.000000pt" height="177.000000pt" viewBox="0 0 284.000000 177.000000"
 preserveAspectRatio="xMidYMid meet">

<g transform="translate(0.000000,177.000000) scale(0.100000,-0.100000)"
fill="#DDE0E4" stroke="none">
<path d="M2598 1033 c6 -2 18 -2 25 0 6 3 1 5 -13 5 -14 0 -19 -2 -12 -5z"/>
<path d="M2465 1014 c-186 -40 -401 -133 -512 -224 -72 -58 -76 -70 -24 -70
35 0 51 9 120 64 129 104 271 175 446 221 99 27 80 32 -30 9z"/>
<path d="M112 918 c-18 -18 -15 -95 4 -102 9 -3 60 -6 115 -6 99 0 99 0 99
-25 l0 -25 -120 0 c-117 0 -142 -7 -101 -30 25 -13 237 -13 262 0 14 8 19 21
19 48 0 63 -7 67 -130 70 -100 3 -110 5 -110 23 0 18 8 19 115 19 112 0 137 8
96 30 -28 14 -234 13 -249 -2z"/>
<path d="M474 917 c-3 -8 -4 -54 -2 -103 l3 -89 33 -3 c31 -3 32 -2 32 37 l0
41 89 0 c49 0 101 4 115 10 23 8 26 15 26 54 0 35 -5 48 -19 56 -30 16 -270
13 -277 -3z m234 -54 c3 -22 1 -23 -82 -23 -85 0 -86 0 -86 25 0 26 0 26 83
23 76 -3 82 -5 85 -25z"/>
<path d="M899 907 c-10 -23 -9 -30 14 -60 14 -19 23 -37 20 -41 -4 -3 -32 -6
-63 -6 -39 0 -62 -5 -70 -15 -11 -13 -2 -15 73 -15 80 0 88 -2 110 -26 18 -19
32 -25 56 -22 l32 3 -71 95 c-91 121 -87 118 -101 87z"/>
<path d="M1168 919 c-15 -8 -18 -24 -18 -92 0 -51 5 -88 12 -95 17 -17 249
-17 266 0 7 7 12 16 12 20 0 4 -52 8 -115 8 l-115 0 0 65 0 65 115 0 c112 0
137 8 96 30 -25 13 -230 13 -253 -1z"/>
<path d="M1530 910 c0 -19 7 -20 140 -20 133 0 140 1 140 20 0 19 -7 20 -140
20 -133 0 -140 -1 -140 -20z"/>
<path d="M1900 922 c0 -12 85 -72 102 -72 7 0 22 7 33 16 19 14 19 15 -10 39
-22 18 -42 24 -77 25 -27 0 -48 -4 -48 -8z"/>
<path d="M1530 790 l0 -70 140 0 c133 0 140 1 140 20 0 19 -7 20 -110 20
l-110 0 0 30 0 30 65 0 c58 0 65 2 65 20 0 19 -7 20 -95 20 l-95 0 0 -70z"/>
<path d="M2102 810 c-12 -10 -22 -20 -22 -22 0 -3 20 -19 44 -36 34 -25 55
-32 90 -32 25 0 46 3 46 8 0 6 -80 66 -124 94 -6 3 -21 -2 -34 -12z"/>
</g>
</svg>
